<?xml version="1.0" encoding="UTF-8" standalone="no"?>
<!-- Generator: Adobe Illustrator 19.1.0, SVG Export Plug-In . SVG Version: 6.00 Build 0)  -->

<svg
   xmlns:dc="http://purl.org/dc/elements/1.1/"
   xmlns:cc="http://creativecommons.org/ns#"
   xmlns:rdf="http://www.w3.org/1999/02/22-rdf-syntax-ns#"
   xmlns:svg="http://www.w3.org/2000/svg"
   xmlns="http://www.w3.org/2000/svg"
   xmlns:sodipodi="http://sodipodi.sourceforge.net/DTD/sodipodi-0.dtd"
   xmlns:inkscape="http://www.inkscape.org/namespaces/inkscape"
   version="1.1"
   id="Layer_1"
   x="0px"
   y="0px"
   viewBox="0 0 386.49999 382.8"
   xml:space="preserve"
   inkscape:version="0.91 r13725"
   sodipodi:docname="EPEAK_GEAR_logo.svg"
   width="386.5"
   height="382.79999"
   inkscape:export-filename="/home/greg/moonpunch/electronics/octeleshield/EPEAK_GEAR_logo.png"
   inkscape:export-xdpi="199.89272"
   inkscape:export-ydpi="199.89272"><metadata
     id="metadata21"><rdf:RDF><cc:Work
         rdf:about=""><dc:format>image/svg+xml</dc:format><dc:type
           rdf:resource="http://purl.org/dc/dcmitype/StillImage" /><dc:title></dc:title></cc:Work></rdf:RDF></metadata><defs
     id="defs19" /><sodipodi:namedview
     pagecolor="#ffffff"
     bordercolor="#666666"
     borderopacity="1"
     objecttolerance="10"
     gridtolerance="10"
     guidetolerance="10"
     inkscape:pageopacity="1"
     inkscape:pageshadow="2"
     inkscape:window-width="1280"
     inkscape:window-height="771"
     id="namedview17"
     showgrid="false"
     fit-margin-top="5"
     fit-margin-left="5"
     fit-margin-right="5"
     fit-margin-bottom="5"
     inkscape:zoom="0.39643878"
     inkscape:cx="-686.77751"
     inkscape:cy="113.05001"
     inkscape:window-x="0"
     inkscape:window-y="0"
     inkscape:window-maximized="1"
     inkscape:current-layer="Layer_1" /><style
     type="text/css"
     id="style3">
	.st0{font-family:'EurostileBold';}
	.st1{font-size:230px;}
	.st2{display:none;}
	.st3{font-size:59.7243px;}
</style><g
     id="g5"
     transform="translate(-217.3,-27.9)"><g
       id="g7"><g
         id="g9"><path
           d="m 342.7,82.1 c -7.3,3.6 -14.4,7.6 -21.1,12.4 l -0.7,-0.7 -30.5,-21.2 -26.9,27.1 21.5,31.7 c -4.8,6.8 -9.1,13.8 -12.6,21.2 l -0.7,-0.2 -37,-4 -10.5,36.7 33.9,17.4 c -0.9,8.2 -1.2,16.5 -0.8,24.7 l -0.7,0.2 -34.3,14.3 8.4,37.3 38.2,-0.9 c 3.1,7.6 4.3,12.1 11.5,22.3 l -0.5,0.5 -22.9,28 25.3,28.6 32.5,-18.9 c 8.5,6.9 17.4,12.9 27,17.7 l -0.3,0.7 -4.6,37 36.5,11.1 18,-33.7 c 12.3,1.5 24.8,1.7 37.2,0.2 l 0.2,0.8 16.5,33.3 36.6,-10.9 -3.6,-38.2 0,0 c 7.3,-3.6 14.4,-7.7 21.1,-12.5 l 0.7,0.7 30.5,21.3 26.9,-27.2 -21.5,-31.8 -0.2,-0.2 c 4.7,-6.8 9,-13.8 12.5,-21.1 l 1.1,0.3 37,4 10.5,-36.7 -34.1,-17.5 -0.4,-0.1 c 0.9,-8.1 1.2,-16.2 0.7,-24.4 l 1.4,-0.3 34.3,-14.3 -8.4,-37.3 -38.3,1.1 -2.2,-1.9 C 546.8,151.3 544.1,145.2 537,135 l 1.1,-1 23.3,-21.8 -25.3,-28.6 -31.3,17.8 0.6,-0.4 C 497,94.2 488.5,88 479.1,83.3 l 0.6,-1.5 4.7,-37 -36.5,-11.2 -18,33.8 -0.1,0.3 C 417.6,66.1 405.2,66 392.9,67.4 l -0.3,-1.2 -16.5,-33.3 -36.7,10.8 3.6,38.2 -0.3,0.2 z m 154.9,61.2 c 42.1,47.6 37.7,120.3 -10,162.4 -47.6,42.1 -120.3,37.6 -162.4,-10 -42.1,-47.6 -37.7,-120.3 10,-162.4 47.5,-42.1 120.3,-37.6 162.4,10 z"
           id="path11"
           inkscape:connector-curvature="0" /></g></g></g><text
     class="st0 st1"
     id="text13"
     x="106.67763"
     y="275.23004"
     style="font-size:230px;font-family:EurostileBold"><tspan
       style="font-style:normal;font-variant:normal;font-weight:bold;font-stretch:normal;font-family:'Open Sans';-inkscape-font-specification:'Open Sans Bold'"
       id="tspan4149">G</tspan></text>
<text
     class="st2 st0 st3"
     id="text15"
     style="font-size:59.72430038px;font-family:EurostileBold;display:none"
     x="4.9426999"
     y="445.18011">EPEAK GEARS</text>
</svg>