G04 #@! TF.FileFunction,Legend,Bot*
%FSLAX46Y46*%
G04 Gerber Fmt 4.6, Leading zero omitted, Abs format (unit mm)*
G04 Created by KiCad (PCBNEW 4.0.2-stable) date Tue 01 Mar 2016 08:06:50 PM CST*
%MOMM*%
G01*
G04 APERTURE LIST*
%ADD10C,0.100000*%
%ADD11C,0.300000*%
%ADD12C,0.150000*%
G04 APERTURE END LIST*
D10*
D11*
X125161143Y-61728891D02*
X125161143Y-60228891D01*
X124804000Y-60228891D01*
X124589715Y-60300320D01*
X124446857Y-60443177D01*
X124375429Y-60586034D01*
X124304000Y-60871749D01*
X124304000Y-61086034D01*
X124375429Y-61371749D01*
X124446857Y-61514606D01*
X124589715Y-61657463D01*
X124804000Y-61728891D01*
X125161143Y-61728891D01*
X123089715Y-61657463D02*
X123232572Y-61728891D01*
X123518286Y-61728891D01*
X123661143Y-61657463D01*
X123732572Y-61514606D01*
X123732572Y-60943177D01*
X123661143Y-60800320D01*
X123518286Y-60728891D01*
X123232572Y-60728891D01*
X123089715Y-60800320D01*
X123018286Y-60943177D01*
X123018286Y-61086034D01*
X123732572Y-61228891D01*
X122446858Y-61657463D02*
X122304001Y-61728891D01*
X122018286Y-61728891D01*
X121875429Y-61657463D01*
X121804001Y-61514606D01*
X121804001Y-61443177D01*
X121875429Y-61300320D01*
X122018286Y-61228891D01*
X122232572Y-61228891D01*
X122375429Y-61157463D01*
X122446858Y-61014606D01*
X122446858Y-60943177D01*
X122375429Y-60800320D01*
X122232572Y-60728891D01*
X122018286Y-60728891D01*
X121875429Y-60800320D01*
X121161143Y-61728891D02*
X121161143Y-60728891D01*
X121161143Y-60228891D02*
X121232572Y-60300320D01*
X121161143Y-60371749D01*
X121089715Y-60300320D01*
X121161143Y-60228891D01*
X121161143Y-60371749D01*
X119804000Y-60728891D02*
X119804000Y-61943177D01*
X119875429Y-62086034D01*
X119946857Y-62157463D01*
X120089714Y-62228891D01*
X120304000Y-62228891D01*
X120446857Y-62157463D01*
X119804000Y-61657463D02*
X119946857Y-61728891D01*
X120232571Y-61728891D01*
X120375429Y-61657463D01*
X120446857Y-61586034D01*
X120518286Y-61443177D01*
X120518286Y-61014606D01*
X120446857Y-60871749D01*
X120375429Y-60800320D01*
X120232571Y-60728891D01*
X119946857Y-60728891D01*
X119804000Y-60800320D01*
X119089714Y-60728891D02*
X119089714Y-61728891D01*
X119089714Y-60871749D02*
X119018286Y-60800320D01*
X118875428Y-60728891D01*
X118661143Y-60728891D01*
X118518286Y-60800320D01*
X118446857Y-60943177D01*
X118446857Y-61728891D01*
X117161143Y-61657463D02*
X117304000Y-61728891D01*
X117589714Y-61728891D01*
X117732571Y-61657463D01*
X117804000Y-61514606D01*
X117804000Y-60943177D01*
X117732571Y-60800320D01*
X117589714Y-60728891D01*
X117304000Y-60728891D01*
X117161143Y-60800320D01*
X117089714Y-60943177D01*
X117089714Y-61086034D01*
X117804000Y-61228891D01*
X115804000Y-61728891D02*
X115804000Y-60228891D01*
X115804000Y-61657463D02*
X115946857Y-61728891D01*
X116232571Y-61728891D01*
X116375429Y-61657463D01*
X116446857Y-61586034D01*
X116518286Y-61443177D01*
X116518286Y-61014606D01*
X116446857Y-60871749D01*
X116375429Y-60800320D01*
X116232571Y-60728891D01*
X115946857Y-60728891D01*
X115804000Y-60800320D01*
X113946857Y-61728891D02*
X113946857Y-60728891D01*
X113946857Y-60228891D02*
X114018286Y-60300320D01*
X113946857Y-60371749D01*
X113875429Y-60300320D01*
X113946857Y-60228891D01*
X113946857Y-60371749D01*
X113232571Y-60728891D02*
X113232571Y-61728891D01*
X113232571Y-60871749D02*
X113161143Y-60800320D01*
X113018285Y-60728891D01*
X112804000Y-60728891D01*
X112661143Y-60800320D01*
X112589714Y-60943177D01*
X112589714Y-61728891D01*
X110946857Y-60228891D02*
X110089714Y-60228891D01*
X110518285Y-61728891D02*
X110518285Y-60228891D01*
X108946857Y-61728891D02*
X108946857Y-60943177D01*
X109018286Y-60800320D01*
X109161143Y-60728891D01*
X109446857Y-60728891D01*
X109589714Y-60800320D01*
X108946857Y-61657463D02*
X109089714Y-61728891D01*
X109446857Y-61728891D01*
X109589714Y-61657463D01*
X109661143Y-61514606D01*
X109661143Y-61371749D01*
X109589714Y-61228891D01*
X109446857Y-61157463D01*
X109089714Y-61157463D01*
X108946857Y-61086034D01*
X108232571Y-61728891D02*
X108232571Y-60728891D01*
X108232571Y-60228891D02*
X108304000Y-60300320D01*
X108232571Y-60371749D01*
X108161143Y-60300320D01*
X108232571Y-60228891D01*
X108232571Y-60371749D01*
X107661142Y-60728891D02*
X107375428Y-61728891D01*
X107089714Y-61014606D01*
X106803999Y-61728891D01*
X106518285Y-60728891D01*
X105303999Y-61728891D02*
X105303999Y-60943177D01*
X105375428Y-60800320D01*
X105518285Y-60728891D01*
X105803999Y-60728891D01*
X105946856Y-60800320D01*
X105303999Y-61657463D02*
X105446856Y-61728891D01*
X105803999Y-61728891D01*
X105946856Y-61657463D01*
X106018285Y-61514606D01*
X106018285Y-61371749D01*
X105946856Y-61228891D01*
X105803999Y-61157463D01*
X105446856Y-61157463D01*
X105303999Y-61086034D01*
X104589713Y-60728891D02*
X104589713Y-61728891D01*
X104589713Y-60871749D02*
X104518285Y-60800320D01*
X104375427Y-60728891D01*
X104161142Y-60728891D01*
X104018285Y-60800320D01*
X103946856Y-60943177D01*
X103946856Y-61728891D01*
X121839713Y-62771749D02*
X121768284Y-62700320D01*
X121625427Y-62628891D01*
X121268284Y-62628891D01*
X121125427Y-62700320D01*
X121053998Y-62771749D01*
X120982570Y-62914606D01*
X120982570Y-63057463D01*
X121053998Y-63271749D01*
X121911141Y-64128891D01*
X120982570Y-64128891D01*
X120053999Y-62628891D02*
X119911142Y-62628891D01*
X119768285Y-62700320D01*
X119696856Y-62771749D01*
X119625427Y-62914606D01*
X119553999Y-63200320D01*
X119553999Y-63557463D01*
X119625427Y-63843177D01*
X119696856Y-63986034D01*
X119768285Y-64057463D01*
X119911142Y-64128891D01*
X120053999Y-64128891D01*
X120196856Y-64057463D01*
X120268285Y-63986034D01*
X120339713Y-63843177D01*
X120411142Y-63557463D01*
X120411142Y-63200320D01*
X120339713Y-62914606D01*
X120268285Y-62771749D01*
X120196856Y-62700320D01*
X120053999Y-62628891D01*
X118125428Y-64128891D02*
X118982571Y-64128891D01*
X118553999Y-64128891D02*
X118553999Y-62628891D01*
X118696856Y-62843177D01*
X118839714Y-62986034D01*
X118982571Y-63057463D01*
X116839714Y-62628891D02*
X117125428Y-62628891D01*
X117268285Y-62700320D01*
X117339714Y-62771749D01*
X117482571Y-62986034D01*
X117554000Y-63271749D01*
X117554000Y-63843177D01*
X117482571Y-63986034D01*
X117411143Y-64057463D01*
X117268285Y-64128891D01*
X116982571Y-64128891D01*
X116839714Y-64057463D01*
X116768285Y-63986034D01*
X116696857Y-63843177D01*
X116696857Y-63486034D01*
X116768285Y-63343177D01*
X116839714Y-63271749D01*
X116982571Y-63200320D01*
X117268285Y-63200320D01*
X117411143Y-63271749D01*
X117482571Y-63343177D01*
X117554000Y-63486034D01*
X116054000Y-63557463D02*
X114911143Y-63557463D01*
X113911143Y-62628891D02*
X113768286Y-62628891D01*
X113625429Y-62700320D01*
X113554000Y-62771749D01*
X113482571Y-62914606D01*
X113411143Y-63200320D01*
X113411143Y-63557463D01*
X113482571Y-63843177D01*
X113554000Y-63986034D01*
X113625429Y-64057463D01*
X113768286Y-64128891D01*
X113911143Y-64128891D01*
X114054000Y-64057463D01*
X114125429Y-63986034D01*
X114196857Y-63843177D01*
X114268286Y-63557463D01*
X114268286Y-63200320D01*
X114196857Y-62914606D01*
X114125429Y-62771749D01*
X114054000Y-62700320D01*
X113911143Y-62628891D01*
X112911143Y-62628891D02*
X111982572Y-62628891D01*
X112482572Y-63200320D01*
X112268286Y-63200320D01*
X112125429Y-63271749D01*
X112054000Y-63343177D01*
X111982572Y-63486034D01*
X111982572Y-63843177D01*
X112054000Y-63986034D01*
X112125429Y-64057463D01*
X112268286Y-64128891D01*
X112696858Y-64128891D01*
X112839715Y-64057463D01*
X112911143Y-63986034D01*
X111339715Y-63557463D02*
X110196858Y-63557463D01*
X109196858Y-62628891D02*
X109054001Y-62628891D01*
X108911144Y-62700320D01*
X108839715Y-62771749D01*
X108768286Y-62914606D01*
X108696858Y-63200320D01*
X108696858Y-63557463D01*
X108768286Y-63843177D01*
X108839715Y-63986034D01*
X108911144Y-64057463D01*
X109054001Y-64128891D01*
X109196858Y-64128891D01*
X109339715Y-64057463D01*
X109411144Y-63986034D01*
X109482572Y-63843177D01*
X109554001Y-63557463D01*
X109554001Y-63200320D01*
X109482572Y-62914606D01*
X109411144Y-62771749D01*
X109339715Y-62700320D01*
X109196858Y-62628891D01*
X107268287Y-64128891D02*
X108125430Y-64128891D01*
X107696858Y-64128891D02*
X107696858Y-62628891D01*
X107839715Y-62843177D01*
X107982573Y-62986034D01*
X108125430Y-63057463D01*
D12*
X105410000Y-82550000D02*
X105410000Y-64770000D01*
X105410000Y-64770000D02*
X102870000Y-64770000D01*
X102870000Y-64770000D02*
X102870000Y-82550000D01*
X105690000Y-85370000D02*
X105690000Y-83820000D01*
X105410000Y-82550000D02*
X102870000Y-82550000D01*
X102590000Y-83820000D02*
X102590000Y-85370000D01*
X102590000Y-85370000D02*
X105690000Y-85370000D01*
X105410000Y-100330000D02*
X105410000Y-87630000D01*
X105410000Y-87630000D02*
X102870000Y-87630000D01*
X102870000Y-87630000D02*
X102870000Y-100330000D01*
X105690000Y-103150000D02*
X105690000Y-101600000D01*
X105410000Y-100330000D02*
X102870000Y-100330000D01*
X102590000Y-101600000D02*
X102590000Y-103150000D01*
X102590000Y-103150000D02*
X105690000Y-103150000D01*
X133350000Y-105410000D02*
X128270000Y-105410000D01*
X125450000Y-105690000D02*
X127000000Y-105690000D01*
X125730000Y-102870000D02*
X128270000Y-102870000D01*
X128270000Y-102870000D02*
X128270000Y-105410000D01*
X133350000Y-105410000D02*
X133350000Y-100330000D01*
X133350000Y-100330000D02*
X128270000Y-100330000D01*
X125450000Y-105690000D02*
X125450000Y-104140000D01*
X125730000Y-100330000D02*
X125730000Y-102870000D01*
X128270000Y-100330000D02*
X125730000Y-100330000D01*
X153670000Y-78486000D02*
X153670000Y-60706000D01*
X153670000Y-60706000D02*
X151130000Y-60706000D01*
X151130000Y-60706000D02*
X151130000Y-78486000D01*
X153950000Y-81306000D02*
X153950000Y-79756000D01*
X153670000Y-78486000D02*
X151130000Y-78486000D01*
X150850000Y-79756000D02*
X150850000Y-81306000D01*
X150850000Y-81306000D02*
X153950000Y-81306000D01*
X153670000Y-100330000D02*
X153670000Y-82550000D01*
X153670000Y-82550000D02*
X151130000Y-82550000D01*
X151130000Y-82550000D02*
X151130000Y-100330000D01*
X153950000Y-103150000D02*
X153950000Y-101600000D01*
X153670000Y-100330000D02*
X151130000Y-100330000D01*
X150850000Y-101600000D02*
X150850000Y-103150000D01*
X150850000Y-103150000D02*
X153950000Y-103150000D01*
X133173695Y-99695261D02*
X133173695Y-98695261D01*
X132792742Y-98695261D01*
X132697504Y-98742880D01*
X132649885Y-98790499D01*
X132602266Y-98885737D01*
X132602266Y-99028594D01*
X132649885Y-99123832D01*
X132697504Y-99171451D01*
X132792742Y-99219070D01*
X133173695Y-99219070D01*
X132268933Y-98695261D02*
X131649885Y-98695261D01*
X131983219Y-99076213D01*
X131840361Y-99076213D01*
X131745123Y-99123832D01*
X131697504Y-99171451D01*
X131649885Y-99266690D01*
X131649885Y-99504785D01*
X131697504Y-99600023D01*
X131745123Y-99647642D01*
X131840361Y-99695261D01*
X132126076Y-99695261D01*
X132221314Y-99647642D01*
X132268933Y-99600023D01*
M02*
