M48
;DRILL file {KiCad 4.0.2-stable} date Tue 01 Mar 2016 08:06:06 PM CST
;FORMAT={2:4/ absolute / inch / keep zeros}
FMAT,2
INCH,TZ
T1C0.016
T2C0.040
T3C0.052
T4C0.055
T5C0.102
%
G90
G05
M72
T1
X042660Y-029986
X042886Y-033420
X042886Y-036450
X043906Y-029986
X045676Y-039900
X045892Y-037334
X046876Y-038716
X046876Y-045586
X047234Y-041316
X047746Y-025426
X047760Y-026490
X048556Y-046186
X048646Y-043830
X048680Y-039008
X050766Y-041834
X051382Y-040480
X053108Y-040030
X053780Y-037664
X053780Y-039832
X054252Y-040228
X054462Y-037148
X054856Y-038446
X055198Y-038962
X055198Y-041448
X058096Y-038550
T2
X041000Y-026000
X041000Y-027000
X041000Y-028000
X041000Y-029000
X041000Y-030000
X041000Y-031000
X041000Y-032000
X041000Y-033000
X041000Y-035000
X041000Y-036000
X041000Y-037000
X041000Y-038000
X041000Y-039000
X041000Y-040000
X050000Y-040000
X050000Y-041000
X051000Y-040000
X051000Y-041000
X052000Y-040000
X052000Y-041000
X060000Y-024400
X060000Y-025400
X060000Y-026400
X060000Y-027400
X060000Y-028400
X060000Y-029400
X060000Y-030400
X060000Y-031400
X060000Y-033000
X060000Y-034000
X060000Y-035000
X060000Y-036000
X060000Y-037000
X060000Y-038000
X060000Y-039000
X060000Y-040000
T3
X053000Y-026000
X053000Y-028500
X053000Y-033000
X053000Y-035500
X057000Y-026000
X057000Y-028500
X057000Y-033000
X057000Y-035500
T4
X042695Y-043794
X045805Y-043794
X055195Y-043794
X058305Y-043794
T5
X044250Y-047829
X056750Y-047829
T0
M30
